<svg viewBox="0 0 20 22.4827" fill="none" xmlns="http://www.w3.org/2000/svg" aria-hidden="true">
  <path d="M0.882198 21.9005C0.377507 21.4596 0.0634302 20.8318 0.00860172 20.1542C-0.0462267 19.4766 0.162651 18.8042 0.58959 18.2841L7.38127 10.0298C6.66393 8.61742 6.448 6.99298 6.77051 5.43511C7.09303 3.87724 7.93389 2.48301 9.1489 1.49153C10.3639 0.500055 11.8774 -0.0268938 13.4297 0.00105741C14.982 0.0290086 16.4765 0.610118 17.6568 1.64473C18.8372 2.67933 19.6298 4.10297 19.8988 5.6715C20.1678 7.24002 19.8965 8.85568 19.1312 10.2414C18.366 11.6271 17.1546 12.6966 15.7048 13.2663C14.255 13.8361 12.6571 13.8707 11.1852 13.3641L10.5964 14.0874L10.741 15.8539C10.7717 16.2524 10.6476 16.6472 10.3956 16.9521C10.1436 17.2569 9.78427 17.4472 9.39603 17.4813L7.92242 17.6097L8.04757 19.1195C8.07736 19.518 7.95261 19.9125 7.70045 20.2172C7.44828 20.522 7.08906 20.7123 6.70087 20.7468L4.97871 20.8969L4.48692 21.5008C3.60557 22.5749 2.08083 22.8009 1.02145 22.0144C0.972096 21.9782 0.928028 21.942 0.885723 21.9059L0.882198 21.9005ZM15.7241 3.90558C15.4727 3.68873 15.1642 3.55317 14.8377 3.51603C14.5111 3.47889 14.1812 3.54184 13.8895 3.69693C13.5979 3.85201 13.3575 4.09228 13.1989 4.38738C13.0403 4.68249 12.9704 5.0192 12.9982 5.35499C13.026 5.69078 13.1502 6.01059 13.355 6.27404C13.5599 6.53749 13.8363 6.73275 14.1493 6.83518C14.4622 6.93761 14.7978 6.9426 15.1135 6.84953C15.4293 6.75646 15.7111 6.5695 15.9233 6.31225C16.0644 6.14087 16.1712 5.94264 16.2375 5.72889C16.3039 5.51515 16.3285 5.29008 16.31 5.06657C16.2915 4.84305 16.2303 4.62547 16.1297 4.42626C16.0292 4.22705 15.8914 4.05012 15.7241 3.90558V3.90558Z" fill="#3FBDD1"/>
</svg>
