<svg viewBox="0 0 20 19.3103" fill="none" xmlns="http://www.w3.org/2000/svg" aria-hidden="true">
  <path d="M8.83408 0.424826L0.637058 7.33963C0.43847 7.50707 0.278708 7.71522 0.168743 7.94979C0.0587772 8.18436 0.00121222 8.43979 0 8.69854L0 17.5179C0 17.9931 0.190036 18.4489 0.528303 18.7849C0.866569 19.121 1.32536 19.3098 1.80374 19.3098H18.1963C18.6746 19.3098 19.1334 19.121 19.4717 18.7849C19.81 18.4489 20 17.9931 20 17.5179V8.69854C20.0006 8.43899 19.9445 8.18239 19.8356 7.94647C19.7266 7.71056 19.5674 7.50094 19.369 7.33211L11.1674 0.424826C10.8414 0.150532 10.428 0 10.0008 0C9.57351 0 9.16011 0.150532 8.83408 0.424826Z" fill="#3DD37A"/>
</svg>
