<svg viewBox="0 0 20 22.081" fill="none" xmlns="http://www.w3.org/2000/svg" aria-hidden="true">
  <path d="M17.9534 9.54466C18.1557 8.95956 18.2269 8.33813 18.1621 7.72326C18.0973 7.10839 17.8979 6.5147 17.5779 5.98317C17.2578 5.45163 16.8246 4.9949 16.3082 4.64447C15.7918 4.29405 15.2044 4.05828 14.5867 3.95343C14.5025 2.8825 14.0135 1.8818 13.2166 1.14961C12.4196 0.417416 11.3729 0.00714908 10.2837 9.25558e-05C9.19448 -0.00696397 8.14234 0.389705 7.3357 1.11151C6.52906 1.83331 6.02679 2.82758 5.92839 3.89733C4.81981 3.95777 3.77677 4.43447 3.01342 5.22954C2.25008 6.02461 1.82437 7.07772 1.8237 8.17263C1.82473 8.63692 1.90316 9.09788 2.05584 9.53708C1.54903 9.84697 1.11231 10.2564 0.772855 10.7399C0.4334 11.2234 0.198476 11.7706 0.082698 12.3475C-0.0330796 12.9244 -0.0272325 13.5186 0.0998754 14.0932C0.226983 14.6677 0.472632 15.2103 0.821537 15.6873C1.17044 16.1642 1.61514 16.5652 2.12795 16.8653C2.64077 17.1654 3.21073 17.3583 3.80237 17.4319C4.39402 17.5054 4.99468 17.4581 5.56699 17.2929C6.1393 17.1277 6.67102 16.8481 7.12905 16.4715C7.48717 16.8347 7.90773 17.1324 8.37121 17.3509V21.2926C8.37121 21.5017 8.45544 21.7022 8.60535 21.8501C8.75527 21.9979 8.95861 22.081 9.17063 22.081H10.8325C10.9375 22.0812 11.0416 22.0609 11.1386 22.0214C11.2357 21.9818 11.3239 21.9238 11.3982 21.8505C11.4725 21.7773 11.5314 21.6903 11.5715 21.5945C11.6116 21.4988 11.6321 21.3962 11.6319 21.2926V17.5601C12.1945 17.3745 12.7129 17.0779 13.1554 16.6883C13.6306 17.0176 14.1679 17.2496 14.7356 17.3706C15.3032 17.4917 15.8897 17.4993 16.4604 17.393C17.0311 17.2867 17.5744 17.0687 18.0583 16.7518C18.5421 16.435 18.9566 16.0257 19.2773 15.5482C19.598 15.0707 19.8184 14.5347 19.9255 13.9718C20.0326 13.4088 20.0242 12.8305 19.9007 12.2708C19.7773 11.7111 19.5414 11.1815 19.207 10.7133C18.8725 10.2451 18.4462 9.84769 17.9534 9.54466Z" fill="#BFD13F"/>
</svg>
