<svg viewBox="0 0 16 22" fill="none" xmlns="http://www.w3.org/2000/svg" aria-hidden="true">
  <path d="M0.7413 12.2056C2.72313 17.3221 7.99794 22 8.00069 22C8.00343 22 13.2769 17.3221 15.2587 12.2056C15.6556 11.2912 15.8958 10.3084 15.9678 9.30379C15.987 9.08159 15.9993 8.86523 15.9993 8.63865C16.0132 7.50957 15.8165 6.38879 15.4207 5.34138C15.025 4.29396 14.4379 3.34076 13.6938 2.5371C12.9496 1.73344 12.0631 1.09533 11.0856 0.659803C10.1082 0.224273 9.05939 0 8 0C6.94061 0 5.89177 0.224273 4.91436 0.659803C3.93694 1.09533 3.05041 1.73344 2.30623 2.5371C1.56205 3.34076 0.975036 4.29396 0.579257 5.34138C0.183477 6.38879 -0.013185 7.50957 0.000685807 8.63865C0.000685807 8.85939 0.0130294 9.0772 0.0322305 9.30379C0.104966 10.3083 0.345077 11.2909 0.7413 12.2056V12.2056Z" fill="#977DEA"/>
</svg>
