<svg viewBox="0 0 20 24.1476" fill="none" xmlns="http://www.w3.org/2000/svg" aria-hidden="true">
  <path d="M19.6566 8.92635H10.507V0.360023C10.5097 0.283856 10.4875 0.208914 10.444 0.146723C10.4005 0.0845323 10.338 0.0385379 10.2662 0.0158148C10.1944 -0.00690832 10.1171 -0.00510156 10.0464 0.0209572C9.97567 0.0470159 9.91535 0.0958832 9.87472 0.160042L0.0604259 14.6885C0.0249056 14.7408 0.0042077 14.802 0.000576513 14.8653C-0.00305467 14.9287 0.0105195 14.9919 0.039827 15.048C0.0691345 15.1041 0.113057 15.1511 0.166831 15.1837C0.220606 15.2164 0.28218 15.2335 0.344877 15.2332H9.493V23.801C9.49355 23.8751 9.51737 23.9471 9.56102 24.0066C9.60467 24.0661 9.66588 24.11 9.73579 24.132C9.80571 24.1539 9.88071 24.1528 9.94993 24.1287C10.0192 24.1046 10.079 24.0588 10.1209 23.998L19.9396 9.47107C19.975 9.41886 19.9957 9.35783 19.9994 9.29459C20.0031 9.23134 19.9896 9.16827 19.9605 9.11219C19.9314 9.05612 19.8877 9.00917 19.8341 8.97642C19.7806 8.94366 19.7192 8.92635 19.6566 8.92635V8.92635Z" fill="#FF7841"/>
</svg>
