<svg width="24" height="24" viewBox="0 0 24 24" fill="none" xmlns="http://www.w3.org/2000/svg">
<g id="icon">
<g id="heart-regular">
<path id="Shape" fill-rule="evenodd" clip-rule="evenodd" d="M12 3.76411C14.5922 1.12505 18.7781 0.782863 21.4875 3.06099C25.0172 6.03286 24.4922 10.8704 21.9844 13.4344L13.7625 21.811C13.2938 22.2891 12.6703 22.5516 12 22.5516C11.3344 22.5516 10.7063 22.2844 10.2375 21.8063L2.01563 13.4297C-0.49687 10.8657 -1.01249 6.02818 2.51251 3.06099C5.22188 0.778176 9.40782 1.12505 12 3.76411ZM12.1594 20.2266L20.3813 11.8501C22.0781 10.1204 22.4344 6.80161 20.0391 4.7813C18.225 3.25318 15.4125 3.47349 13.6406 5.27818L12 6.95161L10.3594 5.27818C8.59688 3.48286 5.78438 3.25318 3.96094 4.78599C1.56094 6.8063 1.90782 10.1063 3.61876 11.8501L11.8406 20.2266C11.9531 20.3391 12.0469 20.3391 12.1594 20.2266Z" fill="black"/>
</g>
</g>
</svg>
