<svg preserveAspectRatio="none" width="100%" height="100%" overflow="visible" style="display: block;" viewBox="0 0 24 24" fill="none" xmlns="http://www.w3.org/2000/svg">
<g id="icon">
<g id="shape">
<path fill-rule="evenodd" clip-rule="evenodd" d="M9.0418 12.0001C9.0418 10.3431 10.3848 9.0001 12.0418 9.0001C13.6988 9.0001 15.0418 10.3431 15.0418 12.0001C15.0418 13.6571 13.6988 15.0001 12.0418 15.0001C10.3848 15.0001 9.0418 13.6571 9.0418 12.0001ZM11.0418 12.0001C11.0418 12.5511 11.4908 13.0001 12.0418 13.0001C12.5928 13.0001 13.0418 12.5511 13.0418 12.0001C13.0418 11.4491 12.5928 11.0001 12.0418 11.0001C11.4908 11.0001 11.0418 11.4491 11.0418 12.0001Z" fill="var(--fill-0, #1C2637)"/>
<path fill-rule="evenodd" clip-rule="evenodd" d="M1.9998 12.0001C3.2908 7.9531 7.2948 5.0001 12.0418 5.0001C16.7888 5.0001 20.7928 7.9531 22.0838 12.0001C20.7928 16.0471 16.7888 19.0001 12.0418 19.0001C7.2948 19.0001 3.2908 16.0471 1.9998 12.0001ZM4.1298 12.0001C5.3788 14.9741 8.5378 17.0001 12.0418 17.0001C15.5458 17.0001 18.7048 14.9741 19.9538 12.0001C18.7048 9.0261 15.5458 7.0001 12.0418 7.0001C8.5378 7.0001 5.3788 9.0261 4.1298 12.0001Z" fill="var(--fill-0, #1C2637)"/>
</g>
</g>
</svg>
