<svg preserveAspectRatio="none" width="100%" height="100%" overflow="visible" style="display: block;" viewBox="0 0 16 16" fill="none" xmlns="http://www.w3.org/2000/svg">
<g id="status and feedback/check">
<g id="shape">
<path d="M6.26467 7.2946L7.556 8.58593L10.404 5.73793H11.3473V6.6806L8.02733 9.99993H7.08467L5.322 8.23727V7.2946H6.26467Z" fill="currentColor"/>
<path fill-rule="evenodd" clip-rule="evenodd" d="M1.33333 8C1.33333 4.318 4.318 1.33333 8 1.33333C11.682 1.33333 14.6667 4.318 14.6667 8C14.6667 11.682 11.682 14.6667 8 14.6667C4.318 14.6667 1.33333 11.682 1.33333 8ZM2.66667 8C2.66667 10.9407 5.05933 13.3333 8 13.3333C10.9407 13.3333 13.3333 10.9407 13.3333 8C13.3333 5.05933 10.9407 2.66667 8 2.66667C5.05933 2.66667 2.66667 5.05933 2.66667 8Z" fill="currentColor"/>
</g>
</g>
</svg>
