<svg preserveAspectRatio="none" width="100%" height="100%" overflow="visible" style="display: block;" viewBox="0 0 16 16" fill="none" xmlns="http://www.w3.org/2000/svg">
<g id="prefixIcon">
<g id="shape">
<path fill-rule="evenodd" clip-rule="evenodd" d="M4.66667 8.66667C4.66667 6.82867 6.162 5.33333 8 5.33333C9.838 5.33333 11.3333 6.82867 11.3333 8.66667C11.3333 10.5047 9.838 12 8 12C6.162 12 4.66667 10.5047 4.66667 8.66667ZM6 8.66667C6 9.76967 6.897 10.6667 8 10.6667C9.103 10.6667 10 9.76967 10 8.66667C10 7.56367 9.103 6.66667 8 6.66667C6.897 6.66667 6 7.56367 6 8.66667Z" fill="var(--fill-0, #02282C)"/>
<path fill-rule="evenodd" clip-rule="evenodd" d="M4.85287 4L5.51953 2H10.4802L11.1472 4H13.9999L14.6665 4.66667V13.3333L13.9999 14H1.99987L1.3332 13.3333V4.66667L1.99987 4H4.85287ZM2.66653 5.33333V12.6667H13.3332V5.33333H10.1862L9.51953 3.33333H6.48053L5.81387 5.33333H2.66653Z" fill="var(--fill-0, #02282C)"/>
</g>
</g>
</svg>
