<svg preserveAspectRatio="none" width="100%" height="100%" overflow="visible" style="display: block;" viewBox="0 0 16 16" fill="none" xmlns="http://www.w3.org/2000/svg">
<g id="prefixIcon">
<g id="shape">
<path fill-rule="evenodd" clip-rule="evenodd" d="M5.33333 5.1548L6.33333 4.57747L11.3093 7.4508V8.60547L6.33333 11.4781L5.33333 10.9008V5.1548ZM9.64267 8.02813L6.66667 6.30947V9.74613L9.64267 8.02813Z" fill="var(--fill-0, #02282C)"/>
<path fill-rule="evenodd" clip-rule="evenodd" d="M1.33333 8C1.33333 4.318 4.318 1.33333 8 1.33333C11.6813 1.33333 14.6667 4.318 14.6667 8C14.6667 11.682 11.6813 14.6667 8 14.6667C4.318 14.6667 1.33333 11.682 1.33333 8ZM2.66667 8C2.66667 10.9407 5.05933 13.3333 8 13.3333C10.9407 13.3333 13.3333 10.9407 13.3333 8C13.3333 5.05933 10.9407 2.66667 8 2.66667C5.05933 2.66667 2.66667 5.05933 2.66667 8Z" fill="var(--fill-0, #02282C)"/>
</g>
</g>
</svg>
