<svg preserveAspectRatio="none" width="100%" height="100%" overflow="visible" style="display: block;" viewBox="0 0 20 20" fill="none" xmlns="http://www.w3.org/2000/svg">
<g id="content/video">
<g id="shape">
<path fill-rule="evenodd" clip-rule="evenodd" d="M6.66667 6.4435L7.91667 5.72183L14.1367 9.3135V10.7568L7.91667 14.3477L6.66667 13.626V6.4435ZM12.0533 10.0352L8.33333 7.88683V12.1827L12.0533 10.0352Z" fill="#0C191D"/>
<path fill-rule="evenodd" clip-rule="evenodd" d="M1.66667 10C1.66667 5.3975 5.3975 1.66667 10 1.66667C14.6017 1.66667 18.3333 5.3975 18.3333 10C18.3333 14.6025 14.6017 18.3333 10 18.3333C5.3975 18.3333 1.66667 14.6025 1.66667 10ZM3.33333 10C3.33333 13.6758 6.32417 16.6667 10 16.6667C13.6758 16.6667 16.6667 13.6758 16.6667 10C16.6667 6.32417 13.6758 3.33333 10 3.33333C6.32417 3.33333 3.33333 6.32417 3.33333 10Z" fill="#0C191D"/>
</g>
</g>
</svg>
