<svg preserveAspectRatio="none" width="100%" height="100%" overflow="visible" style="display: block;" viewBox="0 0 24 24" fill="none" xmlns="http://www.w3.org/2000/svg">
<g id="action and edition/favourite">
<path id="shape" fill-rule="evenodd" clip-rule="evenodd" d="M12 20.366C11.781 20.366 11.566 20.307 11.377 20.195C6.333 17.091 2.5 13.632 2.5 9.816C2.5 6.864 4.864 4.5 7.816 4.5C9.352 4.5 10.768 5.248 11.682 6.409C12.596 5.248 14.012 4.5 15.548 4.5C18.5 4.5 20.864 6.864 20.864 9.816C20.864 13.632 17.031 17.091 11.987 20.195C11.798 20.307 11.583 20.366 11.364 20.366H12ZM7.816 5.682C5.67 5.682 3.932 7.42 3.932 9.566C3.932 12.762 7.347 15.853 12 19.406C16.653 15.853 20.068 12.762 20.068 9.566C20.068 7.42 18.33 5.682 16.184 5.682C14.946 5.682 13.789 6.325 13.084 7.386L12 8.836L10.916 7.386C10.211 6.325 9.054 5.682 7.816 5.682Z" fill="#1c2637"/>
</g>
</svg>
