<svg preserveAspectRatio="none" width="100%" height="100%" overflow="visible" style="display: block;" viewBox="0 0 16 16" fill="none" xmlns="http://www.w3.org/2000/svg">
<g id="status and feedback/more-info">
<g id="shape">
<path d="M8.66667 10.6667V7.33333L8 6.66667L7.33333 7.33333V10.6667L8 11.3333L8.66667 10.6667Z" fill="currentColor"/>
<path d="M8 4.66667C8.368 4.66667 8.66667 4.96533 8.66667 5.33333C8.66667 5.70133 8.368 6 8 6C7.632 6 7.33333 5.70133 7.33333 5.33333C7.33333 4.96533 7.632 4.66667 8 4.66667Z" fill="currentColor"/>
<path fill-rule="evenodd" clip-rule="evenodd" d="M1.33333 8C1.33333 11.676 4.324 14.6667 8 14.6667C11.676 14.6667 14.6667 11.676 14.6667 8C14.6667 4.324 11.676 1.33333 8 1.33333C4.324 1.33333 1.33333 4.324 1.33333 8ZM2.66667 8C2.66667 5.05933 5.05933 2.66667 8 2.66667C10.9407 2.66667 13.3333 5.05933 13.3333 8C13.3333 10.9407 10.9407 13.3333 8 13.3333C5.05933 13.3333 2.66667 10.9407 2.66667 8Z" fill="currentColor"/>
</g>
</g>
</svg>
