<svg preserveAspectRatio="none" width="100%" height="100%" overflow="visible" style="display: block;" viewBox="0 0 24 24" fill="none" xmlns="http://www.w3.org/2000/svg">
<g id="menu">
<path id="shape" fill-rule="evenodd" clip-rule="evenodd" d="M18.0001 19.9998C16.8971 19.9998 16.0001 19.1028 16.0001 17.9998C16.0001 16.8968 16.8971 15.9998 18.0001 15.9998C19.1031 15.9998 20.0001 16.8968 20.0001 17.9998C20.0001 19.1028 19.1031 19.9998 18.0001 19.9998ZM6.0001 13.9998C4.8971 13.9998 4.0001 13.1028 4.0001 11.9998C4.0001 10.8968 4.8971 9.9998 6.0001 9.9998C7.1031 9.9998 8.0001 10.8968 8.0001 11.9998C8.0001 13.1028 7.1031 13.9998 6.0001 13.9998ZM18.0001 3.9998C19.1031 3.9998 20.0001 4.8968 20.0001 5.9998C20.0001 7.1028 19.1031 7.9998 18.0001 7.9998C16.8971 7.9998 16.0001 7.1028 16.0001 5.9998C16.0001 4.8968 16.8971 3.9998 18.0001 3.9998ZM18.0001 13.9998C16.7731 13.9998 15.6891 14.5638 14.9551 15.4338L9.9231 12.7608C9.9711 12.5148 10.0001 12.2608 10.0001 11.9998C10.0001 11.7358 9.9711 11.4788 9.9221 11.2288L14.9531 8.5628C15.6871 9.4348 16.7711 9.9998 18.0001 9.9998C20.2091 9.9998 22.0001 8.2088 22.0001 5.9998C22.0001 3.7908 20.2091 1.9998 18.0001 1.9998C15.7911 1.9998 14.0001 3.7908 14.0001 5.9998C14.0001 6.2618 14.0291 6.5168 14.0771 6.7648L9.0431 9.4318C8.3101 8.5628 7.2261 7.9998 6.0001 7.9998C3.7911 7.9998 2.0001 9.7908 2.0001 11.9998C2.0001 14.2088 3.7911 15.9998 6.0001 15.9998C7.2291 15.9998 8.3151 15.4338 9.0491 14.5618L14.0771 17.2318C14.0281 17.4808 14.0001 17.7368 14.0001 17.9998C14.0001 20.2088 15.7911 21.9998 18.0001 21.9998C20.2091 21.9998 22.0001 20.2088 22.0001 17.9998C22.0001 15.7908 20.2091 13.9998 18.0001 13.9998Z" fill="var(--fill-0, #02282C)"/>
</g>
</svg>
