<svg preserveAspectRatio="none" width="100%" height="100%" overflow="visible" style="display: block;" viewBox="0 0 16 16" fill="none" xmlns="http://www.w3.org/2000/svg">
<g id="prefixIcon">
<path id="shape" fill-rule="evenodd" clip-rule="evenodd" d="M12.2584 13.3188C7.08055 13.0897 2.9103 8.91979 2.68149 3.74161L5.02453 2.80426L6.45732 5.66984L5.34768 6.22449V6.63796C5.34768 8.85154 7.14879 10.6523 9.36204 10.6523H9.77551L10.3305 9.54302L13.1957 10.9755L12.2584 13.3188ZM14.3448 10.0538L10.3305 8.04667L9.43262 8.34607L8.96328 9.28442C7.80614 9.11114 6.8892 8.19386 6.71557 7.03672L7.65426 6.56738L7.95333 5.66984L5.94616 1.65549L5.09946 1.33333L1.75417 2.67145L1.33333 3.29267C1.33333 9.56443 6.43591 14.6667 12.7073 14.6667L13.3285 14.2462L14.6667 10.9009L14.3448 10.0538Z" fill="var(--fill-0, #0C191D)"/>
</g>
</svg>
