<svg width="24" height="24" viewBox="0 0 24 24" fill="none" xmlns="http://www.w3.org/2000/svg">
<g transform="translate(-972.267, -24)">
<path fill-rule="evenodd" clip-rule="evenodd" d="M979.767 30.5C979.767 32.9815 981.786 35 984.267 35C986.748 35 988.767 32.9815 988.767 30.5C988.767 28.0185 986.748 26 984.267 26C981.786 26 979.767 28.0185 979.767 30.5ZM981.767 30.5C981.767 29.1215 982.888 28 984.267 28C985.645 28 986.767 29.1215 986.767 30.5C986.767 31.8785 985.645 33 984.267 33C982.888 33 981.767 31.8785 981.767 30.5Z" fill="currentColor"/>
<path fill-rule="evenodd" clip-rule="evenodd" d="M976.267 46H992.267L993.267 45C993.267 40.0375 989.23 36 984.267 36C979.304 36 975.267 40.0375 975.267 45L976.267 46ZM991.196 44H977.338C977.825 40.6125 980.747 38 984.267 38C987.787 38 990.709 40.6125 991.196 44Z" fill="currentColor"/>
</g>
</svg>
